<svg version="1" xmlns="http://www.w3.org/2000/svg" width="682.667" height="682.667" viewBox="0 0 512.000000 512.000000"><path d="M237.8.5c-.1.2-3.4.6-7.2.9-6.5.5-8.6.8-16.1 2.1-1.6.3-4.7.8-6.8 1.1-2.1.3-8.6 1.9-14.5 3.5s-11.6 3.1-12.8 3.4c-2 .5-8.9 2.9-20.9 7.6-9.3 3.5-31 14.9-41 21.4C100.3 52.3 91.6 59.3 76 75c-12.3 12.3-15 15.3-22.4 25.2-3.1 4-6 7.7-6.4 8.3-2.1 2.8-10.1 15.4-11.7 18.5-1 1.9-2.1 3.7-2.4 4-.6.5-8.2 15.8-11.5 23-7.1 15.9-14.4 40.8-17.5 59.5-.6 3.3-1.3 7.6-1.6 9.5-.4 1.9-1 6.6-1.5 10.5-1.1 10-.3 52 1 52 .1 0 .3.9.4 2 .9 7.2 2.4 16.1 3.2 19.5.3 1.4 1.2 5.2 1.9 8.5 5.2 23.5 16.6 51 31.1 74.7 13.5 22.2 37.1 49 57.4 65.3 16 12.8 42.3 28.8 56 34.1 2.5 1 4.7 2 5 2.3 1.6 1.8 36.3 12.8 46 14.6.8.1 3.3.6 5.5 1s5.1.9 6.5 1.1c1.4.2 3.9.6 5.5.9 9.2 1.5 16.9 1.9 34.5 1.9 19.7 0 30.8-.4 32.4-1.2.5-.3 2.5-.6 4.5-.8 3.3-.2 5.1-.5 12.1-1.9 1.4-.3 4.1-.8 6-1.1 13.6-2.4 44.8-13.1 58.2-20.1 2.9-1.5 5.6-2.6 6-2.5.3.1 1.2-.5 1.8-1.3.7-.8 1.6-1.5 2-1.5 2.2 0 31.7-19 36.2-23.2.7-.7 3.6-3.1 6.3-5.3 8.2-6.4 27.6-26.3 35.7-36.5 16.5-20.8 26.1-37.2 38.3-65.5 3.1-7.2 9.7-28.4 11.1-35.5.3-1.4.9-4.1 1.4-6 .5-1.9 1.2-5.5 1.5-8 .3-2.5.7-6.3 1-8.5 1.5-11.2 1.9-19.6 1.9-36 .1-18.4-.5-27-2.8-44.5-1.3-9.3-4.8-23.4-10.2-40-4.9-15.2-19.5-44.6-28.3-57.1-1.4-2-3.3-4.7-4.1-5.9-12-17.9-35-41.8-53.6-55.8-6-4.5-11.4-8.6-12.1-9.2-.7-.5-1.4-1-1.7-1-.2 0-3.1-1.7-6.3-3.8-13.2-8.8-34.6-19.1-51.8-25-17.4-5.9-30.1-9-48.5-11.7-1.9-.3-5.3-.7-7.5-1.1-4.3-.6-46.1-1.5-46.7-.9z"/></svg>